{"title":"Crawlspace 2012 DVDRip H264 AC3 HS","uid":7981656,"size":777888547,"categoryP":"video","categoryS":"movies","magnet":"?xt=urn:btih:735d80afc162346f2bfcd76fd9238e55c06de763&amp;dn=Crawlspace+2012+DVDRip+H264+AC3+HS&amp;tr=udp%3A%2F%2Ftracker.openbittorrent.com%3A80&amp;tr=udp%3A%2F%2Fopen.demonii.com%3A1337&amp;tr=udp%3A%2F%2Ftracker.coppersurfer.tk%3A6969&amp;tr=udp%3A%2F%2Fexodus.desync.com%3A6969","seeders":0,"leechers":1,"uploader":"neon","files":-1,"time":1357193634,"description":"A group of elite soldiers sent to infiltrate and extract the lead science team from Pine Gap, Australia's top secret underground military compound, after it comes under attack from unknown forces. The mission is compromised when they encounter a young woman with no memory of who she is or how she came to be there. As they try to escape, the group quickly discovers all is not as it seems and the facility has become a testing ground for something far more sinister.&quot;\n\nCrawlspace 2012 DVDRip H264 AC3 HS\n  &lt;a href=&quot;\nhttp://www.imdb.com/title/tt1890375/&quot; rel=&quot;nofollow&quot; target=&quot;_NEW&quot;&gt;\nhttp://www.imdb.com/title/tt1890375/&lt;/a&gt;\n \nSource -- DVDR(A friend)\n \nFormat : Matroska\n Format version : Version 2\n File size : 742 MiB\n Duration : 1h 26mn\n \nVideo\n \nID : 1\n Format : AVC\n Format/Info : Advanced Video Codec\n Format profile : &lt;a class=&quot;__cf_email__&quot; href=&quot;/cdn-cgi/l/email-protection&quot; data-cfemail=&quot;c78faea0af878bf4e9f7&quot;&gt;[email&amp;#160;protected]&lt;/a&gt;&lt;script cf-hash='f9e31' type=&quot;text/javascript&quot;&gt;\n/* &lt;![CDATA[ */!function(){try{var t=&quot;currentScript&quot;in document?document.currentScript:function(){for(var t=document.getElementsByTagName(&quot;script&quot;),e=t.length;e--;)if(t[e].getAttribute(&quot;cf-hash&quot;))return t[e]}();if(t&amp;&amp;t.previousSibling){var e,r,n,i,c=t.previousSibling,a=c.getAttribute(&quot;data-cfemail&quot;);if(a){for(e=&quot;&quot;,r=parseInt(a.substr(0,2),16),n=2;a.length-n;n+=2)i=parseInt(a.substr(n,2),16)^r,e+=String.fromCharCode(i);e=document.createTextNode(e),c.parentNode.replaceChild(e,c)}}}catch(u){}}();/* ]]&gt; */&lt;/script&gt;\n Format settings, CABAC : Yes\n Format settings, ReFrames : 4 frames\n Muxing mode : Header stripping\n Codec ID : V_MPEG4/ISO/AVC\n Duration : 1h 26mn\n Bit rate : 785 Kbps\n Width : 720 pixels\n Height : 306 pixels\n Display aspect ratio : 2.35:1\n Frame rate mode : Constant\n Frame rate : 24.000 fps\n Color space : YUV\n Chroma subsampling : 4:2:0\n Bit depth : 8 bits\n Scan type : Progressive\n Bits/(Pixel*Frame) : 0.148\n Stream size : 488 MiB (66%)\n \nAudio\n \nID : 2\n Format : AC-3\n Format/Info : Audio Coding 3\n Codec ID : A_AC3\n Duration : 1h 26mn\n Bit rate mode : Constant\n Bit rate : 384 Kbps\n Channel(s) : 6 channels\n Channel positions : Front: L C R, Side: L R, LFE\n Sampling rate : 44.1 KHz\n Bit depth : 16 bits\n Compression mode : Lossy\n Stream size : 239 MiB (32%)\n Default : Yes\n Forced : No\n\n &lt;a href=&quot;\nhttp://i.imgur.com/z8Wqn.png&quot; rel=&quot;nofollow&quot; target=&quot;_NEW&quot;&gt;\nhttp://i.imgur.com/z8Wqn.png&lt;/a&gt; &lt;a href=&quot;\nhttp://i.imgur.com/Bywmu.png&quot; rel=&quot;nofollow&quot; target=&quot;_NEW&quot;&gt;\nhttp://i.imgur.com/Bywmu.png&lt;/a&gt; &lt;a href=&quot;\nhttp://i.imgur.com/Srt5n.png&quot; rel=&quot;nofollow&quot; target=&quot;_NEW&quot;&gt;\nhttp://i.imgur.com/Srt5n.png&lt;/a&gt; &lt;a href=&quot;\nhttp://i.imgur.com/5LQbb.png&quot; rel=&quot;nofollow&quot; target=&quot;_NEW&quot;&gt;\nhttp://i.imgur.com/5LQbb.png&lt;/a&gt;","torrent":{"xt":"urn:btih:735d80afc162346f2bfcd76fd9238e55c06de763","amp;dn":"Crawlspace+2012+DVDRip+H264+AC3+HS","amp;tr":["udp%3A%2F%2Ftracker.openbittorrent.com%3A80","udp%3A%2F%2Fopen.demonii.com%3A1337","udp%3A%2F%2Ftracker.coppersurfer.tk%3A6969","udp%3A%2F%2Fexodus.desync.com%3A6969"],"infoHash":"735d80afc162346f2bfcd76fd9238e55c06de763","infoHashBuffer":{"type":"Buffer","data":[115,93,128,175,193,98,52,111,43,252,215,111,217,35,142,85,192,109,231,99]},"announce":[],"urlList":[]}}